<mxfile><diagram name="Page-1" id="c4acf3e9-155e-7222-9cf6-157b1a14988f"><mxGraphModel dx="1183" dy="1419" grid="1" gridSize="9" guides="0" tooltips="1" connect="1" arrows="1" fold="1" page="1" pageScale="1" pageWidth="500" pageHeight="450" background="#000000" math="0" shadow="0"><root><mxCell id="0"/><mxCell id="1" parent="0"/><mxCell id="2" value="&lt;b&gt;CartItem&lt;/b&gt;" style="swimlane;html=1;fontStyle=0;childLayout=stackLayout;horizontal=1;startSize=26;horizontalStack=0;resizeParent=1;resizeLast=0;collapsible=1;marginBottom=0;swimlaneFillColor=#ffffff;rounded=0;shadow=1;comic=0;labelBackgroundColor=none;strokeWidth=1;fontFamily=Verdana;fontSize=10;align=center;fillColor=#DBF7FC;strokeColor=#6c8ebf;gradientColor=#7DE0D6;" parent="1" vertex="1"><mxGeometry x="-405" y="-297" width="198" height="216" as="geometry"/></mxCell><mxCell id="3" value="- Product product&lt;br&gt;- double quantity&lt;br&gt;- double price&lt;br&gt;- double tax&lt;br&gt;&amp;nbsp;&lt;div&gt;&lt;br&gt;&lt;/div&gt;" style="text;html=1;align=left;verticalAlign=top;spacingLeft=4;spacingRight=4;whiteSpace=wrap;overflow=hidden;rotatable=0;points=[[0,0.5],[1,0.5]];portConstraint=eastwest;" parent="2" vertex="1"><mxGeometry y="26" width="198" height="73" as="geometry"/></mxCell><mxCell id="4" value="&lt;div&gt;+CartItem(Product product, double quantity)&lt;/div&gt;+getProduct()&lt;font color=&quot;#666666&quot;&gt; : Product&lt;/font&gt;&lt;br&gt;&lt;span style=&quot;background-color: initial;&quot;&gt;+getQuantity(&lt;/span&gt;&lt;span style=&quot;border-color: var(--border-color); background-color: initial;&quot;&gt;) &lt;font color=&quot;#666666&quot;&gt;: double&lt;/font&gt;&lt;/span&gt;&lt;span style=&quot;background-color: initial;&quot;&gt;&lt;br&gt;&lt;/span&gt;&lt;div&gt;&lt;span style=&quot;background-color: initial;&quot;&gt;+getPrice() &lt;font color=&quot;#666666&quot;&gt;: double&lt;/font&gt;&lt;/span&gt;&lt;/div&gt;&lt;div&gt;+getTax()&amp;nbsp;&lt;font style=&quot;border-color: var(--border-color);&quot; color=&quot;#666666&quot;&gt;: double&lt;/font&gt;&lt;span style=&quot;background-color: initial;&quot;&gt;&lt;font color=&quot;#666666&quot;&gt;&lt;br&gt;&lt;/font&gt;&lt;/span&gt;&lt;/div&gt;" style="text;html=1;strokeColor=#A9C4EB;fillColor=none;align=left;verticalAlign=top;spacingLeft=4;spacingRight=4;whiteSpace=wrap;overflow=hidden;rotatable=0;points=[[0,0.5],[1,0.5]];portConstraint=eastwest;" parent="2" vertex="1"><mxGeometry y="99" width="198" height="117" as="geometry"/></mxCell><mxCell id="22" style="edgeStyle=none;rounded=0;html=1;strokeColor=#FF00FF;strokeWidth=3;fontColor=#666666;endArrow=diamondThin;endFill=0;startSize=3;endSize=13;targetPerimeterSpacing=0;" edge="1" parent="1" source="oBYWJvY_SIiAh6eByvDu-55" target="4"><mxGeometry relative="1" as="geometry"/></mxCell><mxCell id="oBYWJvY_SIiAh6eByvDu-29" style="edgeStyle=orthogonalEdgeStyle;rounded=0;html=1;labelBackgroundColor=none;startFill=0;endArrow=block;endFill=0;endSize=10;fontFamily=Verdana;fontSize=10;fillColor=#ffff88;strokeColor=#00FFFF;shadow=1;strokeWidth=3;entryX=0.5;entryY=1;entryDx=0;entryDy=0;exitX=0.5;exitY=0;exitDx=0;exitDy=0;" parent="1" source="oBYWJvY_SIiAh6eByvDu-18" edge="1" target="u5MeqlauhvPHs2ROLqZb-3"><mxGeometry relative="1" as="geometry"><Array as="points"/><mxPoint x="234" y="144" as="sourcePoint"/><mxPoint x="216" y="-52" as="targetPoint"/></mxGeometry></mxCell><mxCell id="17acba5748e5396b-20" value="&lt;b&gt;JsonReader&lt;/b&gt;" style="swimlane;html=1;fontStyle=0;childLayout=stackLayout;horizontal=1;startSize=26;fillColor=#CCFFCC;horizontalStack=0;resizeParent=1;resizeLast=0;collapsible=1;marginBottom=0;swimlaneFillColor=#ffffff;rounded=0;shadow=1;comic=0;labelBackgroundColor=none;strokeWidth=1;fontFamily=Verdana;fontSize=10;align=center;strokeColor=#82b366;gradientColor=#66CC66;" parent="1" vertex="1"><mxGeometry x="288" y="-144" width="180" height="110" as="geometry"><mxRectangle x="350" y="42" width="100" height="30" as="alternateBounds"/></mxGeometry></mxCell><mxCell id="17acba5748e5396b-30" value="&lt;b&gt;Register_OS&lt;/b&gt;" style="swimlane;html=1;fontStyle=0;childLayout=stackLayout;horizontal=1;startSize=26;horizontalStack=0;resizeParent=1;resizeLast=0;collapsible=1;marginBottom=0;swimlaneFillColor=#ffffff;rounded=0;shadow=1;comic=0;labelBackgroundColor=none;strokeWidth=1;fontFamily=Verdana;fontSize=10;align=center;fillColor=#CCFF99;strokeColor=#FFCFF2;gradientColor=#E6199B;" parent="1" vertex="1"><mxGeometry x="-81" y="-828" width="180" height="180" as="geometry"/></mxCell><mxCell id="17acba5748e5396b-31" value="&lt;div&gt;- ProductFactory pfac&lt;/div&gt;&lt;div&gt;- CommandHandler ch&lt;/div&gt;&lt;div&gt;- Boolean exitProgram&lt;/div&gt;&lt;div&gt;- Scanner in&lt;/div&gt;" style="text;html=1;strokeColor=none;fillColor=none;align=left;verticalAlign=top;spacingLeft=4;spacingRight=4;whiteSpace=wrap;overflow=hidden;rotatable=0;points=[[0,0.5],[1,0.5]];portConstraint=eastwest;shadow=1;" parent="17acba5748e5396b-30" vertex="1"><mxGeometry y="26" width="180" height="64" as="geometry"/></mxCell><mxCell id="oBYWJvY_SIiAh6eByvDu-10" value="&lt;div&gt;+Register_OS()&lt;/div&gt;&lt;div&gt;+main(String[] args) : void&lt;/div&gt;+doTransaction() : void&lt;br&gt;+searchProducts : voids&lt;br&gt;+listProducts() : void" style="text;html=1;strokeColor=#FFCFF2;fillColor=none;align=left;verticalAlign=top;spacingLeft=4;spacingRight=4;whiteSpace=wrap;overflow=hidden;rotatable=0;points=[[0,0.5],[1,0.5]];portConstraint=eastwest;" parent="17acba5748e5396b-30" vertex="1"><mxGeometry y="90" width="180" height="90" as="geometry"/></mxCell><mxCell id="oBYWJvY_SIiAh6eByvDu-18" value="&lt;div style=&quot;&quot;&gt;&lt;b style=&quot;background-color: initial;&quot;&gt;WeighableProduct&lt;/b&gt;&lt;/div&gt;" style="swimlane;html=1;fontStyle=0;childLayout=stackLayout;horizontal=1;startSize=36;fillColor=#FFD036;horizontalStack=0;resizeParent=1;resizeLast=0;collapsible=1;marginBottom=0;swimlaneFillColor=#ffffff;rounded=0;shadow=1;comic=0;labelBackgroundColor=none;strokeWidth=1;fontFamily=Verdana;fontSize=10;align=center;strokeColor=#CC6600;gradientColor=#FF8800;" parent="1" vertex="1"><mxGeometry x="-162" y="-45" width="198" height="81" as="geometry"/></mxCell><mxCell id="oBYWJvY_SIiAh6eByvDu-22" value="&lt;div&gt;+getPrice(double weight)&lt;font color=&quot;#666666&quot;&gt; : double&lt;/font&gt;&lt;/div&gt;&lt;div&gt;+getTax(double weight)&lt;font color=&quot;#666666&quot;&gt; : double&lt;/font&gt;&lt;/div&gt;" style="text;html=1;strokeColor=#CC6600;fillColor=none;align=left;verticalAlign=top;spacingLeft=4;spacingRight=4;whiteSpace=wrap;overflow=hidden;rotatable=0;points=[[0,0.5],[1,0.5]];portConstraint=eastwest;" parent="oBYWJvY_SIiAh6eByvDu-18" vertex="1"><mxGeometry y="36" width="198" height="45" as="geometry"/></mxCell><mxCell id="oBYWJvY_SIiAh6eByvDu-25" value="&lt;b&gt;Cart&lt;/b&gt;" style="swimlane;html=1;fontStyle=0;childLayout=stackLayout;horizontal=1;startSize=26;horizontalStack=0;resizeParent=1;resizeLast=0;collapsible=1;marginBottom=0;swimlaneFillColor=#ffffff;rounded=0;shadow=1;comic=0;labelBackgroundColor=none;strokeWidth=1;fontFamily=Verdana;fontSize=10;align=center;fillColor=#dae8fc;strokeColor=#6c8ebf;gradientColor=#7DCCE0;" parent="1" vertex="1"><mxGeometry x="-216" y="-540" width="160" height="153" as="geometry"/></mxCell><mxCell id="oBYWJvY_SIiAh6eByvDu-26" value="- List&amp;lt;CartItem&amp;gt; items&amp;nbsp;&lt;div&gt;&lt;br&gt;&lt;/div&gt;" style="text;html=1;align=left;verticalAlign=top;spacingLeft=4;spacingRight=4;whiteSpace=wrap;overflow=hidden;rotatable=0;points=[[0,0.5],[1,0.5]];portConstraint=eastwest;" parent="oBYWJvY_SIiAh6eByvDu-25" vertex="1"><mxGeometry y="26" width="160" height="24" as="geometry"/></mxCell><mxCell id="oBYWJvY_SIiAh6eByvDu-27" value="&lt;div&gt;+Cart()&lt;/div&gt;+addItem(Product product, double quantity&lt;span style=&quot;background-color: initial;&quot;&gt;)&lt;br&gt;+removeLast() &lt;font color=&quot;#666666&quot;&gt;: CartItem&lt;/font&gt;&lt;br&gt;&lt;/span&gt;&lt;div&gt;&lt;span style=&quot;background-color: initial;&quot;&gt;+getTotal() &lt;font color=&quot;#666666&quot;&gt;: double&lt;/font&gt;&lt;/span&gt;&lt;/div&gt;&lt;div&gt;&lt;span style=&quot;background-color: initial;&quot;&gt;+checkout(double)&lt;font color=&quot;#666666&quot;&gt; : void&lt;/font&gt;&lt;/span&gt;&lt;/div&gt;" style="text;html=1;strokeColor=#A9C4EB;fillColor=none;align=left;verticalAlign=top;spacingLeft=4;spacingRight=4;whiteSpace=wrap;overflow=hidden;rotatable=0;points=[[0,0.5],[1,0.5]];portConstraint=eastwest;" parent="oBYWJvY_SIiAh6eByvDu-25" vertex="1"><mxGeometry y="50" width="160" height="103" as="geometry"/></mxCell><mxCell id="oBYWJvY_SIiAh6eByvDu-54" value="&lt;b&gt;Receipt&lt;/b&gt;" style="swimlane;html=1;fontStyle=0;childLayout=stackLayout;horizontal=1;startSize=26;horizontalStack=0;resizeParent=1;resizeLast=0;collapsible=1;marginBottom=0;swimlaneFillColor=#ffffff;rounded=0;shadow=1;comic=0;labelBackgroundColor=none;strokeWidth=1;fontFamily=Verdana;fontSize=10;align=center;fillColor=#FFF8C7;strokeColor=#d6b656;gradientColor=#FFF945;" parent="1" vertex="1"><mxGeometry x="-450" y="36" width="207" height="189" as="geometry"/></mxCell><mxCell id="oBYWJvY_SIiAh6eByvDu-55" value="&lt;div&gt;- ArrayList &amp;lt;CartItem&amp;gt; items&lt;/div&gt;&lt;div&gt;- java.util.Date dateCreated&lt;/div&gt;" style="text;html=1;align=left;verticalAlign=top;spacingLeft=4;spacingRight=4;whiteSpace=wrap;overflow=hidden;rotatable=0;points=[[0,0.5],[1,0.5]];portConstraint=eastwest;" parent="oBYWJvY_SIiAh6eByvDu-54" vertex="1"><mxGeometry y="26" width="207" height="46" as="geometry"/></mxCell><mxCell id="oBYWJvY_SIiAh6eByvDu-56" value="+Receipt()&lt;br&gt;+Receipt(ArrayList&amp;lt;CartItem&amp;gt; itemList)&lt;br&gt;&lt;div&gt;+getTotal() &lt;font color=&quot;#666666&quot;&gt;: double&lt;/font&gt;&lt;/div&gt;&lt;div&gt;+toString()&lt;font color=&quot;#666666&quot;&gt; : String&lt;/font&gt;&lt;/div&gt;&lt;div&gt;+toFile(String path) &lt;font color=&quot;#666666&quot;&gt;: void&lt;/font&gt;&lt;/div&gt;&lt;div&gt;+getDateString() &lt;font color=&quot;#666666&quot;&gt;: String&lt;/font&gt;&lt;/div&gt;&lt;div style=&quot;clear: none; padding-top: 0px; border-radius: 8px; color: rgb(232, 232, 232); font-family: Roboto, arial, sans-serif; font-size: 14px; background-color: rgb(31, 31, 31);&quot; lang=&quot;en-US&quot; data-md=&quot;25&quot; class=&quot;wDYxhc NFQFxe viOShc LKPcQc&quot;&gt;&lt;div style=&quot;padding: 0px;&quot; data-ved=&quot;2ahUKEwjz4Iz27s-FAxVnk4kEHQRpAoEQtwcoAHoECBcQAA&quot; data-hveid=&quot;CBcQAA&quot; role=&quot;heading&quot; aria-level=&quot;2&quot; class=&quot;HwtpBd gsrt PZPZlf kTOYnf&quot;&gt;&lt;div style=&quot;color: var(--IXoxUe);&quot; class=&quot;yxAsKe&quot;&gt;&lt;/div&gt;&lt;/div&gt;&lt;/div&gt;&lt;div style=&quot;clear: none; padding-left: 0px; padding-right: 0px; color: rgb(232, 232, 232); font-family: Roboto, arial, sans-serif; font-size: 14px; background-color: rgb(31, 31, 31);&quot; lang=&quot;en-US&quot; data-md=&quot;135&quot; class=&quot;wDYxhc&quot;&gt;&lt;div data-hveid=&quot;CBYQAA&quot; class=&quot;Crs1tb&quot;&gt;&lt;/div&gt;&lt;/div&gt;" style="text;html=1;strokeColor=#999900;fillColor=none;align=left;verticalAlign=top;spacingLeft=4;spacingRight=4;whiteSpace=wrap;overflow=hidden;rotatable=0;points=[[0,0.5],[1,0.5]];portConstraint=eastwest;" parent="oBYWJvY_SIiAh6eByvDu-54" vertex="1"><mxGeometry y="72" width="207" height="117" as="geometry"/></mxCell><mxCell id="u5MeqlauhvPHs2ROLqZb-3" value="&lt;b&gt;Product&lt;/b&gt;" style="swimlane;html=1;fontStyle=0;childLayout=stackLayout;horizontal=1;startSize=26;fillColor=#FFCC99;horizontalStack=0;resizeParent=1;resizeLast=0;collapsible=1;marginBottom=0;swimlaneFillColor=#ffffff;rounded=0;shadow=1;comic=0;labelBackgroundColor=none;strokeWidth=1;fontFamily=Verdana;fontSize=10;align=center;strokeColor=#d79b00;glass=0;swimlaneLine=1;gradientColor=#FF5E00;" parent="1" vertex="1"><mxGeometry x="45" y="-459" width="198" height="333" as="geometry"/></mxCell><mxCell id="u5MeqlauhvPHs2ROLqZb-4" value="- int sku&lt;br&gt;- String name&lt;div&gt;# double price&lt;/div&gt;&lt;div&gt;# double taxRate&lt;/div&gt;" style="text;html=1;strokeColor=none;fillColor=none;align=left;verticalAlign=top;spacingLeft=4;spacingRight=4;whiteSpace=wrap;overflow=hidden;rotatable=0;points=[[0,0.5],[1,0.5]];portConstraint=eastwest;" parent="u5MeqlauhvPHs2ROLqZb-3" vertex="1"><mxGeometry y="26" width="198" height="73" as="geometry"/></mxCell><mxCell id="u5MeqlauhvPHs2ROLqZb-5" value="&lt;div&gt;+Product()&lt;br&gt;&lt;/div&gt;&lt;div&gt;+Product(int sku, String name, double price, double taxRate)&lt;br&gt;&lt;/div&gt;&lt;div&gt;+getName()&lt;font color=&quot;#666666&quot;&gt; : String&lt;/font&gt;&lt;/div&gt;&lt;div&gt;+setName(String name) &lt;font color=&quot;#666666&quot;&gt;: void&lt;/font&gt;&lt;/div&gt;&lt;div&gt;+getPrice() &lt;font color=&quot;#666666&quot;&gt;: double&lt;br&gt;&lt;/font&gt;&lt;/div&gt;&lt;div&gt;+setPrice(double price)&lt;font color=&quot;#666666&quot;&gt; : void&lt;/font&gt;&lt;/div&gt;&lt;div&gt;&lt;div&gt;&lt;span style=&quot;background-color: initial;&quot;&gt;+getTaxRate() &lt;font color=&quot;#666666&quot;&gt;: double&lt;/font&gt;&lt;/span&gt;&lt;/div&gt;&lt;div&gt;&lt;span style=&quot;border-color: var(--border-color);&quot;&gt;+setTaxRate(double taxRate)&lt;font color=&quot;#666666&quot;&gt; : void&lt;/font&gt;&lt;/span&gt;&lt;/div&gt;&lt;div&gt;&lt;span style=&quot;border-color: var(--border-color);&quot;&gt;+getTax()&lt;font color=&quot;#666666&quot;&gt; : double&lt;/font&gt;&lt;/span&gt;&lt;/div&gt;&lt;div&gt;+getSku(&lt;span style=&quot;border-color: var(--border-color); background-color: initial;&quot;&gt;)&lt;font color=&quot;#666666&quot;&gt; : int&lt;/font&gt;&lt;/span&gt;&lt;b&gt;&lt;br&gt;&lt;/b&gt;&lt;div&gt;+setSku(int sku&lt;span style=&quot;background-color: initial;&quot;&gt;)&lt;/span&gt;&lt;/div&gt;&lt;div&gt;&lt;span style=&quot;background-color: initial;&quot;&gt;+toString() : String&lt;/span&gt;&lt;/div&gt;&lt;div&gt;&lt;span style=&quot;background-color: initial;&quot;&gt;+compareTo(Product otherProduct)&lt;font color=&quot;#666666&quot;&gt; : int&lt;/font&gt;&lt;/span&gt;&lt;/div&gt;&lt;div&gt;&lt;br&gt;&lt;/div&gt;&lt;/div&gt;&lt;div&gt;&lt;br&gt;&lt;/div&gt;&lt;/div&gt;" style="text;html=1;align=left;verticalAlign=top;spacingLeft=4;spacingRight=4;whiteSpace=wrap;overflow=hidden;rotatable=0;points=[[0,0.5],[1,0.5]];portConstraint=eastwest;strokeColor=#FFB366;" parent="u5MeqlauhvPHs2ROLqZb-3" vertex="1"><mxGeometry y="99" width="198" height="234" as="geometry"/></mxCell><mxCell id="u5MeqlauhvPHs2ROLqZb-6" value="&lt;b&gt;ProductFactory&lt;/b&gt;" style="swimlane;html=1;fontStyle=0;childLayout=stackLayout;horizontal=1;startSize=26;fillColor=#f8cecc;horizontalStack=0;resizeParent=1;resizeLast=0;collapsible=1;marginBottom=0;swimlaneFillColor=default;rounded=0;shadow=1;comic=0;labelBackgroundColor=none;strokeWidth=1;fontFamily=Verdana;fontSize=10;align=center;strokeColor=#b85450;glass=0;swimlaneLine=1;gradientColor=#EA3333;gradientDirection=south;" parent="1" vertex="1"><mxGeometry x="198" y="-684" width="252" height="171" as="geometry"/></mxCell><mxCell id="u5MeqlauhvPHs2ROLqZb-7" value="- Map&amp;lt;Integer, Product&amp;gt; products" style="text;html=1;strokeColor=none;fillColor=none;align=left;verticalAlign=top;spacingLeft=4;spacingRight=4;whiteSpace=wrap;overflow=hidden;rotatable=0;points=[[0,0.5],[1,0.5]];portConstraint=eastwest;" parent="u5MeqlauhvPHs2ROLqZb-6" vertex="1"><mxGeometry y="26" width="252" height="28" as="geometry"/></mxCell><mxCell id="u5MeqlauhvPHs2ROLqZb-8" value="&lt;div&gt;+ProductFactory()&lt;/div&gt;&lt;div&gt;+loadProducts(String fileName, String jsonArray) &lt;font color=&quot;#666666&quot;&gt;: Boolean&lt;/font&gt;&lt;/div&gt;&lt;div&gt;+getProducts(String Name) : Product&lt;/div&gt;&lt;div&gt;&lt;span style=&quot;border-color: var(--border-color); background-color: initial;&quot;&gt;+getProducts()&amp;nbsp;&lt;font style=&quot;border-color: var(--border-color);&quot; color=&quot;#666666&quot;&gt;:&amp;nbsp;&lt;/font&gt;&lt;/span&gt;&lt;span style=&quot;border-color: var(--border-color); background-color: initial;&quot;&gt;&lt;font style=&quot;border-color: var(--border-color);&quot; color=&quot;#666666&quot;&gt;&amp;nbsp;Map&amp;lt;Integer, Product&amp;gt;&lt;/font&gt;&lt;/span&gt;&lt;br&gt;&lt;/div&gt;&lt;div&gt;&lt;span style=&quot;border-color: var(--border-color); background-color: initial;&quot;&gt;&lt;font style=&quot;border-color: var(--border-color);&quot; color=&quot;#666666&quot;&gt;&lt;span style=&quot;color: rgb(0, 0, 0);&quot;&gt;+getProductByName(String name&lt;/span&gt;&lt;span style=&quot;border-color: var(--border-color); color: rgb(0, 0, 0); background-color: initial;&quot;&gt;)&lt;/span&gt;&lt;span style=&quot;border-color: var(--border-color); background-color: initial;&quot;&gt; : Product&lt;/span&gt;&lt;br&gt;&lt;/font&gt;&lt;/span&gt;&lt;/div&gt;&lt;div&gt;+getProductByID(Integer ID&lt;span style=&quot;background-color: initial;&quot;&gt;)&lt;font color=&quot;#666666&quot;&gt; : Product&lt;/font&gt;&lt;/span&gt;&lt;/div&gt;&lt;div&gt;&lt;div&gt;&lt;br&gt;&lt;/div&gt;&lt;/div&gt;&lt;div&gt;&lt;br&gt;&lt;/div&gt;" style="text;html=1;align=left;verticalAlign=top;spacingLeft=4;spacingRight=4;whiteSpace=wrap;overflow=hidden;rotatable=0;points=[[0,0.5],[1,0.5]];portConstraint=eastwest;strokeColor=#FFB366;" parent="u5MeqlauhvPHs2ROLqZb-6" vertex="1"><mxGeometry y="54" width="252" height="117" as="geometry"/></mxCell><mxCell id="6" value="&lt;b&gt;Command&lt;/b&gt;" style="swimlane;html=1;fontStyle=0;childLayout=stackLayout;horizontal=1;startSize=26;fillColor=#E6E6E6;horizontalStack=0;resizeParent=1;resizeLast=0;collapsible=1;marginBottom=0;swimlaneFillColor=#ffffff;rounded=0;shadow=1;comic=0;labelBackgroundColor=none;strokeWidth=1;fontFamily=Verdana;fontSize=10;align=center;strokeColor=#333333;glass=0;swimlaneLine=1;gradientColor=#999999;" parent="1" vertex="1"><mxGeometry x="-423" y="-801" width="160" height="135" as="geometry"/></mxCell><mxCell id="7" value="- String helpText&lt;div&gt;- Runnable method&lt;/div&gt;" style="text;html=1;strokeColor=none;fillColor=none;align=left;verticalAlign=top;spacingLeft=4;spacingRight=4;whiteSpace=wrap;overflow=hidden;rotatable=0;points=[[0,0.5],[1,0.5]];portConstraint=eastwest;" parent="6" vertex="1"><mxGeometry y="26" width="160" height="37" as="geometry"/></mxCell><mxCell id="8" value="&lt;div&gt;+Command(Runnable method, String helpText)&lt;/div&gt;+getHelpText() &lt;font color=&quot;#666666&quot;&gt;: String&lt;/font&gt;&lt;div&gt;+run() &lt;font color=&quot;#666666&quot;&gt;: void&lt;/font&gt;&lt;/div&gt;&lt;div&gt;&lt;br&gt;&lt;/div&gt;" style="text;html=1;align=left;verticalAlign=top;spacingLeft=4;spacingRight=4;whiteSpace=wrap;overflow=hidden;rotatable=0;points=[[0,0.5],[1,0.5]];portConstraint=eastwest;strokeColor=#333333;" parent="6" vertex="1"><mxGeometry y="63" width="160" height="72" as="geometry"/></mxCell><mxCell id="31" value="" style="edgeStyle=none;rounded=0;html=1;strokeColor=#FF00FF;strokeWidth=3;fontColor=#666666;endArrow=diamondThin;endFill=0;startSize=3;endSize=13;targetPerimeterSpacing=0;" edge="1" parent="1" source="9" target="8"><mxGeometry relative="1" as="geometry"/></mxCell><mxCell id="9" value="&lt;b&gt;CommandHandler&lt;/b&gt;" style="swimlane;html=1;fontStyle=0;childLayout=stackLayout;horizontal=1;startSize=26;fillColor=#FCFCFC;horizontalStack=0;resizeParent=1;resizeLast=0;collapsible=1;marginBottom=0;swimlaneFillColor=#ffffff;rounded=0;shadow=1;comic=0;labelBackgroundColor=none;strokeWidth=1;fontFamily=Verdana;fontSize=10;align=center;strokeColor=#333333;glass=0;swimlaneLine=1;gradientColor=#CCCCCC;" parent="1" vertex="1"><mxGeometry x="-441" y="-594" width="171" height="162" as="geometry"/></mxCell><mxCell id="10" value="-&amp;nbsp;Map&amp;lt;String, Command&amp;gt; commands" style="text;html=1;strokeColor=none;fillColor=none;align=left;verticalAlign=top;spacingLeft=4;spacingRight=4;whiteSpace=wrap;overflow=hidden;rotatable=0;points=[[0,0.5],[1,0.5]];portConstraint=eastwest;" parent="9" vertex="1"><mxGeometry y="26" width="171" height="37" as="geometry"/></mxCell><mxCell id="11" value="&lt;div&gt;+CommandHandler()&lt;/div&gt;+addCommand(String name, Command, c) &lt;font color=&quot;#666666&quot;&gt;: void&lt;/font&gt;&lt;br&gt;+getCommand(String name) &lt;font color=&quot;#666666&quot;&gt;: Command&lt;/font&gt;&lt;br&gt;+ listCommands()&lt;font color=&quot;#666666&quot;&gt; : void&lt;/font&gt;&lt;br&gt;&lt;div&gt;&lt;br&gt;&lt;/div&gt;" style="text;html=1;align=left;verticalAlign=top;spacingLeft=4;spacingRight=4;whiteSpace=wrap;overflow=hidden;rotatable=0;points=[[0,0.5],[1,0.5]];portConstraint=eastwest;strokeColor=#333333;" parent="9" vertex="1"><mxGeometry y="63" width="171" height="99" as="geometry"/></mxCell><mxCell id="12" value="&lt;div style=&quot;&quot;&gt;&lt;b&gt;Change&lt;/b&gt;&lt;/div&gt;" style="swimlane;html=1;fontStyle=0;childLayout=stackLayout;horizontal=1;startSize=27;fillColor=#FFFA6E;horizontalStack=0;resizeParent=1;resizeLast=0;collapsible=1;marginBottom=0;swimlaneFillColor=#ffffff;rounded=0;shadow=1;comic=0;labelBackgroundColor=none;strokeWidth=1;fontFamily=Verdana;fontSize=10;align=center;strokeColor=#4C0099;gradientColor=#C8FF12;" vertex="1" parent="1"><mxGeometry x="-126" y="153" width="198" height="108" as="geometry"/></mxCell><mxCell id="13" value="+getChange(double owed, double payment)&lt;font color=&quot;#666666&quot;&gt; : String&lt;/font&gt;&lt;br&gt;+findCoin(double change, double value&lt;font color=&quot;#666666&quot;&gt; : int&lt;/font&gt;" style="text;html=1;strokeColor=#C8FF12;fillColor=none;align=left;verticalAlign=top;spacingLeft=4;spacingRight=4;whiteSpace=wrap;overflow=hidden;rotatable=0;points=[[0,0.5],[1,0.5]];portConstraint=eastwest;" vertex="1" parent="12"><mxGeometry y="27" width="198" height="81" as="geometry"/></mxCell><mxCell id="24" style="edgeStyle=none;rounded=0;html=1;strokeColor=#FF00FF;strokeWidth=3;fontColor=#666666;endArrow=diamondThin;endFill=0;startSize=3;endSize=13;targetPerimeterSpacing=0;entryX=0.983;entryY=0.238;entryDx=0;entryDy=0;entryPerimeter=0;" edge="1" parent="1" source="u5MeqlauhvPHs2ROLqZb-8" target="u5MeqlauhvPHs2ROLqZb-4"><mxGeometry relative="1" as="geometry"><mxPoint x="279" y="-450" as="targetPoint"/></mxGeometry></mxCell><mxCell id="26" value="&lt;i&gt;JSON&lt;br&gt;&lt;/i&gt;&lt;b&gt;products&lt;/b&gt;" style="swimlane;html=1;fontStyle=0;childLayout=stackLayout;horizontal=1;startSize=36;fillColor=#CCFFCC;horizontalStack=0;resizeParent=1;resizeLast=0;collapsible=1;marginBottom=0;swimlaneFillColor=#ffffff;rounded=0;shadow=1;comic=0;labelBackgroundColor=none;strokeWidth=1;fontFamily=Verdana;fontSize=10;align=center;strokeColor=#82b366;gradientColor=#66CC66;" vertex="1" parent="1"><mxGeometry x="135" y="18" width="180" height="145" as="geometry"><mxRectangle x="350" y="42" width="100" height="30" as="alternateBounds"/></mxGeometry></mxCell><mxCell id="27" value="- Array products&lt;br&gt;- String PRODUCT_NAME&lt;br&gt;- int SKU&lt;br&gt;- double PRICE_RETAIL&lt;br&gt;- boolean WEIGHABLE&lt;br&gt;- double TAX_RATE" style="text;html=1;strokeColor=none;fillColor=none;align=left;verticalAlign=top;spacingLeft=4;spacingRight=4;whiteSpace=wrap;overflow=hidden;rotatable=0;points=[[0,0.5],[1,0.5]];portConstraint=eastwest;" vertex="1" parent="26"><mxGeometry y="36" width="180" height="108" as="geometry"/></mxCell><mxCell id="28" style="edgeStyle=none;rounded=0;html=1;strokeColor=#FF00FF;strokeWidth=3;fontColor=#666666;endArrow=diamondThin;endFill=0;startSize=3;endSize=13;targetPerimeterSpacing=0;" edge="1" parent="1" source="3"><mxGeometry relative="1" as="geometry"><mxPoint x="45" y="-318" as="targetPoint"/></mxGeometry></mxCell><mxCell id="29" style="edgeStyle=none;rounded=0;html=1;entryX=-0.005;entryY=0.113;entryDx=0;entryDy=0;entryPerimeter=0;strokeColor=#FF00FF;strokeWidth=3;fontColor=#666666;endArrow=diamondThin;endFill=0;startSize=3;endSize=13;targetPerimeterSpacing=0;exitX=1.008;exitY=1.097;exitDx=0;exitDy=0;exitPerimeter=0;" edge="1" parent="1" source="17acba5748e5396b-31" target="u5MeqlauhvPHs2ROLqZb-8"><mxGeometry relative="1" as="geometry"/></mxCell><mxCell id="30" style="edgeStyle=none;rounded=0;html=1;entryX=0.564;entryY=0.031;entryDx=0;entryDy=0;entryPerimeter=0;strokeColor=#FF00FF;strokeWidth=3;fontColor=#666666;endArrow=diamondThin;endFill=0;startSize=3;endSize=13;targetPerimeterSpacing=0;" edge="1" parent="1" target="2"><mxGeometry relative="1" as="geometry"><mxPoint x="-216" y="-495" as="sourcePoint"/></mxGeometry></mxCell><mxCell id="32" style="edgeStyle=none;rounded=0;html=1;entryX=0;entryY=0.086;entryDx=0;entryDy=0;entryPerimeter=0;strokeColor=#FF00FF;strokeWidth=3;fontColor=#666666;endArrow=diamondThin;endFill=0;startSize=3;endSize=13;targetPerimeterSpacing=0;" edge="1" parent="1" source="oBYWJvY_SIiAh6eByvDu-27" target="u5MeqlauhvPHs2ROLqZb-5"><mxGeometry relative="1" as="geometry"/></mxCell><mxCell id="34" style="edgeStyle=none;rounded=0;html=1;entryX=0.981;entryY=0.105;entryDx=0;entryDy=0;entryPerimeter=0;strokeColor=#FF00FF;strokeWidth=3;fontColor=#666666;endArrow=diamondThin;endFill=0;startSize=3;endSize=13;targetPerimeterSpacing=0;exitX=0.003;exitY=0.007;exitDx=0;exitDy=0;exitPerimeter=0;" edge="1" parent="1" source="oBYWJvY_SIiAh6eByvDu-10" target="11"><mxGeometry relative="1" as="geometry"/></mxCell><mxCell id="36" style="edgeStyle=none;rounded=0;html=1;entryX=0.843;entryY=0.045;entryDx=0;entryDy=0;entryPerimeter=0;strokeColor=#FFFF66;strokeWidth=3;fontColor=#666666;endArrow=open;endFill=0;startSize=3;endSize=13;targetPerimeterSpacing=0;dashed=1;" edge="1" parent="1" source="u5MeqlauhvPHs2ROLqZb-8" target="17acba5748e5396b-20"><mxGeometry relative="1" as="geometry"/></mxCell><mxCell id="38" style="edgeStyle=none;rounded=0;html=1;entryX=0.015;entryY=0.21;entryDx=0;entryDy=0;entryPerimeter=0;dashed=1;strokeColor=#FFFF66;strokeWidth=3;fontColor=#666666;endArrow=open;endFill=0;startSize=3;endSize=13;targetPerimeterSpacing=0;" edge="1" parent="1" source="oBYWJvY_SIiAh6eByvDu-55" target="13"><mxGeometry relative="1" as="geometry"/></mxCell><mxCell id="17acba5748e5396b-21" value="+readJsonArrayFromFile(String fileName, String arrayName&lt;font color=&quot;#666666&quot;&gt; : JsonArray&lt;/font&gt;" style="text;html=1;strokeColor=none;fillColor=none;align=left;verticalAlign=top;spacingLeft=4;spacingRight=4;whiteSpace=wrap;overflow=hidden;rotatable=0;points=[[0,0.5],[1,0.5]];portConstraint=eastwest;" parent="1" vertex="1"><mxGeometry x="288" y="-118" width="180" height="82" as="geometry"/></mxCell><mxCell id="40" value="&lt;font color=&quot;#ff00ff&quot;&gt;1..*&lt;/font&gt;" style="text;html=1;align=center;verticalAlign=middle;resizable=0;points=[];autosize=1;strokeColor=none;fillColor=none;fontColor=#666666;" vertex="1" parent="1"><mxGeometry x="-54" y="-414" width="36" height="27" as="geometry"/></mxCell><mxCell id="41" value="&lt;font color=&quot;#ff00ff&quot;&gt;1..*&lt;/font&gt;" style="text;html=1;align=center;verticalAlign=middle;resizable=0;points=[];autosize=1;strokeColor=none;fillColor=none;fontColor=#666666;" vertex="1" parent="1"><mxGeometry x="243" y="-513" width="36" height="27" as="geometry"/></mxCell></root></mxGraphModel></diagram></mxfile>